<svg width="150" height="37" viewBox="0 0 150 37" fill="none" xmlns="http://www.w3.org/2000/svg">
<path d="M69.4062 16.625L72.957 8.9375H76.8008L71.1992 19.8125V26H67.625V19.8125L62.0234 8.9375H65.8789L69.4062 16.625ZM85.2617 24.7109C84.4258 25.7266 83.2695 26.2344 81.793 26.2344C80.4336 26.2344 79.3945 25.8438 78.6758 25.0625C77.9648 24.2812 77.6016 23.1367 77.5859 21.6289V13.3203H80.9727V21.5117C80.9727 22.832 81.5742 23.4922 82.7773 23.4922C83.9258 23.4922 84.7148 23.0938 85.1445 22.2969V13.3203H88.543V26H85.3555L85.2617 24.7109ZM95.7031 20.9141L94.4844 22.1328V26H91.0977V8H94.4844V17.9727L95.1406 17.1289L98.3867 13.3203H102.453L97.8711 18.6055L102.852 26H98.9609L95.7031 20.9141ZM104.141 26V8.9375H110.117C112.188 8.9375 113.758 9.33594 114.828 10.1328C115.898 10.9219 116.434 12.082 116.434 13.6133C116.434 14.4492 116.219 15.1875 115.789 15.8281C115.359 16.4609 114.762 16.9258 113.996 17.2227C114.871 17.4414 115.559 17.8828 116.059 18.5469C116.566 19.2109 116.82 20.0234 116.82 20.9844C116.82 22.625 116.297 23.8672 115.25 24.7109C114.203 25.5547 112.711 25.9844 110.773 26H104.141ZM107.656 18.5703V23.1758H110.668C111.496 23.1758 112.141 22.9805 112.602 22.5898C113.07 22.1914 113.305 21.6445 113.305 20.9492C113.305 19.3867 112.496 18.5938 110.879 18.5703H107.656ZM107.656 16.0859H110.258C112.031 16.0547 112.918 15.3477 112.918 13.9648C112.918 13.1914 112.691 12.6367 112.238 12.3008C111.793 11.957 111.086 11.7852 110.117 11.7852H107.656V16.0859ZM122.82 26H119.422V13.3203H122.82V26ZM119.223 10.0391C119.223 9.53125 119.391 9.11328 119.727 8.78516C120.07 8.45703 120.535 8.29297 121.121 8.29297C121.699 8.29297 122.16 8.45703 122.504 8.78516C122.848 9.11328 123.02 9.53125 123.02 10.0391C123.02 10.5547 122.844 10.9766 122.492 11.3047C122.148 11.6328 121.691 11.7969 121.121 11.7969C120.551 11.7969 120.09 11.6328 119.738 11.3047C119.395 10.9766 119.223 10.5547 119.223 10.0391ZM132.488 22.4961C132.488 22.082 132.281 21.7578 131.867 21.5234C131.461 21.2812 130.805 21.0664 129.898 20.8789C126.883 20.2461 125.375 18.9648 125.375 17.0352C125.375 15.9102 125.84 14.9727 126.77 14.2227C127.707 13.4648 128.93 13.0859 130.438 13.0859C132.047 13.0859 133.332 13.4648 134.293 14.2227C135.262 14.9805 135.746 15.9648 135.746 17.1758H132.359C132.359 16.6914 132.203 16.293 131.891 15.9805C131.578 15.6602 131.09 15.5 130.426 15.5C129.855 15.5 129.414 15.6289 129.102 15.8867C128.789 16.1445 128.633 16.4727 128.633 16.8711C128.633 17.2461 128.809 17.5508 129.16 17.7852C129.52 18.0117 130.121 18.2109 130.965 18.3828C131.809 18.5469 132.52 18.7344 133.098 18.9453C134.887 19.6016 135.781 20.7383 135.781 22.3555C135.781 23.5117 135.285 24.4492 134.293 25.168C133.301 25.8789 132.02 26.2344 130.449 26.2344C129.387 26.2344 128.441 26.0469 127.613 25.6719C126.793 25.2891 126.148 24.7695 125.68 24.1133C125.211 23.4492 124.977 22.7344 124.977 21.9688H128.188C128.219 22.5703 128.441 23.0312 128.855 23.3516C129.27 23.6719 129.824 23.832 130.52 23.832C131.168 23.832 131.656 23.7109 131.984 23.4688C132.32 23.2188 132.488 22.8945 132.488 22.4961ZM145.32 26C145.164 25.6953 145.051 25.3164 144.98 24.8633C144.16 25.7773 143.094 26.2344 141.781 26.2344C140.539 26.2344 139.508 25.875 138.688 25.1562C137.875 24.4375 137.469 23.5312 137.469 22.4375C137.469 21.0938 137.965 20.0625 138.957 19.3438C139.957 18.625 141.398 18.2617 143.281 18.2539H144.84V17.5273C144.84 16.9414 144.688 16.4727 144.383 16.1211C144.086 15.7695 143.613 15.5938 142.965 15.5938C142.395 15.5938 141.945 15.7305 141.617 16.0039C141.297 16.2773 141.137 16.6523 141.137 17.1289H137.75C137.75 16.3945 137.977 15.7148 138.43 15.0898C138.883 14.4648 139.523 13.9766 140.352 13.625C141.18 13.2656 142.109 13.0859 143.141 13.0859C144.703 13.0859 145.941 13.4805 146.855 14.2695C147.777 15.0508 148.238 16.1523 148.238 17.5742V23.0703C148.246 24.2734 148.414 25.1836 148.742 25.8008V26H145.32ZM142.52 23.6445C143.02 23.6445 143.48 23.5352 143.902 23.3164C144.324 23.0898 144.637 22.7891 144.84 22.4141V20.2344H143.574C141.879 20.2344 140.977 20.8203 140.867 21.9922L140.855 22.1914C140.855 22.6133 141.004 22.9609 141.301 23.2344C141.598 23.5078 142.004 23.6445 142.52 23.6445Z" fill="#00AEEF"/>
<rect x="19.3333" y="9.40002" width="3.33333" height="10.7714" fill="#00AEEF"/>
<rect x="19.3333" y="16.8286" width="3.33333" height="10.7714" fill="#00AEEF"/>
<rect x="22.6667" y="17.5714" width="9.66667" height="2.6" fill="#00AEEF"/>
<rect x="9.66675" y="17.5714" width="9.66667" height="2.6" fill="#00AEEF"/>
<circle cx="37" cy="19" r="5" fill="#00AEEF"/>
<circle cx="21" cy="18" r="5" fill="#00AEEF"/>
<circle cx="21" cy="32" r="5" fill="#00AEEF"/>
<circle cx="5" cy="19" r="5" fill="#00AEEF"/>
<circle cx="21" cy="5" r="5" fill="#00AEEF"/>
</svg>
