<svg width="169" height="60" viewBox="0 0 169 60" fill="none" xmlns="http://www.w3.org/2000/svg">
<path d="M88.4062 29.625L91.957 21.9375H95.8008L90.1992 32.8125V39H86.625V32.8125L81.0234 21.9375H84.8789L88.4062 29.625ZM104.262 37.7109C103.426 38.7266 102.27 39.2344 100.793 39.2344C99.4336 39.2344 98.3945 38.8438 97.6758 38.0625C96.9648 37.2812 96.6016 36.1367 96.5859 34.6289V26.3203H99.9727V34.5117C99.9727 35.832 100.574 36.4922 101.777 36.4922C102.926 36.4922 103.715 36.0938 104.145 35.2969V26.3203H107.543V39H104.355L104.262 37.7109ZM114.703 33.9141L113.484 35.1328V39H110.098V21H113.484V30.9727L114.141 30.1289L117.387 26.3203H121.453L116.871 31.6055L121.852 39H117.961L114.703 33.9141ZM123.141 39V21.9375H129.117C131.188 21.9375 132.758 22.3359 133.828 23.1328C134.898 23.9219 135.434 25.082 135.434 26.6133C135.434 27.4492 135.219 28.1875 134.789 28.8281C134.359 29.4609 133.762 29.9258 132.996 30.2227C133.871 30.4414 134.559 30.8828 135.059 31.5469C135.566 32.2109 135.82 33.0234 135.82 33.9844C135.82 35.625 135.297 36.8672 134.25 37.7109C133.203 38.5547 131.711 38.9844 129.773 39H123.141ZM126.656 31.5703V36.1758H129.668C130.496 36.1758 131.141 35.9805 131.602 35.5898C132.07 35.1914 132.305 34.6445 132.305 33.9492C132.305 32.3867 131.496 31.5938 129.879 31.5703H126.656ZM126.656 29.0859H129.258C131.031 29.0547 131.918 28.3477 131.918 26.9648C131.918 26.1914 131.691 25.6367 131.238 25.3008C130.793 24.957 130.086 24.7852 129.117 24.7852H126.656V29.0859ZM141.82 39H138.422V26.3203H141.82V39ZM138.223 23.0391C138.223 22.5312 138.391 22.1133 138.727 21.7852C139.07 21.457 139.535 21.293 140.121 21.293C140.699 21.293 141.16 21.457 141.504 21.7852C141.848 22.1133 142.02 22.5312 142.02 23.0391C142.02 23.5547 141.844 23.9766 141.492 24.3047C141.148 24.6328 140.691 24.7969 140.121 24.7969C139.551 24.7969 139.09 24.6328 138.738 24.3047C138.395 23.9766 138.223 23.5547 138.223 23.0391ZM151.488 35.4961C151.488 35.082 151.281 34.7578 150.867 34.5234C150.461 34.2812 149.805 34.0664 148.898 33.8789C145.883 33.2461 144.375 31.9648 144.375 30.0352C144.375 28.9102 144.84 27.9727 145.77 27.2227C146.707 26.4648 147.93 26.0859 149.438 26.0859C151.047 26.0859 152.332 26.4648 153.293 27.2227C154.262 27.9805 154.746 28.9648 154.746 30.1758H151.359C151.359 29.6914 151.203 29.293 150.891 28.9805C150.578 28.6602 150.09 28.5 149.426 28.5C148.855 28.5 148.414 28.6289 148.102 28.8867C147.789 29.1445 147.633 29.4727 147.633 29.8711C147.633 30.2461 147.809 30.5508 148.16 30.7852C148.52 31.0117 149.121 31.2109 149.965 31.3828C150.809 31.5469 151.52 31.7344 152.098 31.9453C153.887 32.6016 154.781 33.7383 154.781 35.3555C154.781 36.5117 154.285 37.4492 153.293 38.168C152.301 38.8789 151.02 39.2344 149.449 39.2344C148.387 39.2344 147.441 39.0469 146.613 38.6719C145.793 38.2891 145.148 37.7695 144.68 37.1133C144.211 36.4492 143.977 35.7344 143.977 34.9688H147.188C147.219 35.5703 147.441 36.0312 147.855 36.3516C148.27 36.6719 148.824 36.832 149.52 36.832C150.168 36.832 150.656 36.7109 150.984 36.4688C151.32 36.2188 151.488 35.8945 151.488 35.4961ZM164.32 39C164.164 38.6953 164.051 38.3164 163.98 37.8633C163.16 38.7773 162.094 39.2344 160.781 39.2344C159.539 39.2344 158.508 38.875 157.688 38.1562C156.875 37.4375 156.469 36.5312 156.469 35.4375C156.469 34.0938 156.965 33.0625 157.957 32.3438C158.957 31.625 160.398 31.2617 162.281 31.2539H163.84V30.5273C163.84 29.9414 163.688 29.4727 163.383 29.1211C163.086 28.7695 162.613 28.5938 161.965 28.5938C161.395 28.5938 160.945 28.7305 160.617 29.0039C160.297 29.2773 160.137 29.6523 160.137 30.1289H156.75C156.75 29.3945 156.977 28.7148 157.43 28.0898C157.883 27.4648 158.523 26.9766 159.352 26.625C160.18 26.2656 161.109 26.0859 162.141 26.0859C163.703 26.0859 164.941 26.4805 165.855 27.2695C166.777 28.0508 167.238 29.1523 167.238 30.5742V36.0703C167.246 37.2734 167.414 38.1836 167.742 38.8008V39H164.32ZM161.52 36.6445C162.02 36.6445 162.48 36.5352 162.902 36.3164C163.324 36.0898 163.637 35.7891 163.84 35.4141V33.2344H162.574C160.879 33.2344 159.977 33.8203 159.867 34.9922L159.855 35.1914C159.855 35.6133 160.004 35.9609 160.301 36.2344C160.598 36.5078 161.004 36.6445 161.52 36.6445Z" fill="#F2F2F2"/>
<rect x="30.3809" y="15.2433" width="5.2381" height="17.4672" fill="#F2F2F2"/>
<rect x="30.3809" y="27.2897" width="5.2381" height="17.4672" fill="#F2F2F2"/>
<rect x="35.6191" y="28.4941" width="15.1905" height="4.21622" fill="#F2F2F2"/>
<rect x="15.1914" y="28.4941" width="15.1905" height="4.21622" fill="#F2F2F2"/>
<ellipse cx="58.1423" cy="30.8109" rx="7.85714" ry="8.10811" fill="white"/>
<ellipse cx="32.9997" cy="29.1892" rx="7.85714" ry="8.10811" fill="white"/>
<ellipse cx="32.9997" cy="51.8919" rx="7.85714" ry="8.10811" fill="white"/>
<ellipse cx="7.85714" cy="30.8109" rx="7.85714" ry="8.10811" fill="white"/>
<ellipse cx="32.9997" cy="8.10811" rx="7.85714" ry="8.10811" fill="white"/>
</svg>
